<svg width="25" height="28" viewBox="0 0 25 28" fill="none" xmlns="http://www.w3.org/2000/svg">
<circle cx="12.5" cy="14.5" r="12.5" fill="#142683"/>
<path d="M8.765 19V17.605C9.405 17.075 10.025 16.55 10.625 16.03C11.235 15.51 11.775 14.995 12.245 14.485C12.725 13.975 13.105 13.48 13.385 13C13.675 12.51 13.82 12.035 13.82 11.575C13.82 11.145 13.7 10.765 13.46 10.435C13.23 10.105 12.845 9.94 12.305 9.94C11.755 9.94 11.34 10.12 11.06 10.48C10.78 10.84 10.64 11.275 10.64 11.785H8.78C8.8 11.015 8.97 10.375 9.29 9.865C9.61 9.345 10.035 8.96 10.565 8.71C11.095 8.45 11.69 8.32 12.35 8.32C13.42 8.32 14.25 8.615 14.84 9.205C15.44 9.785 15.74 10.54 15.74 11.47C15.74 12.05 15.605 12.615 15.335 13.165C15.075 13.715 14.73 14.245 14.3 14.755C13.87 15.265 13.405 15.745 12.905 16.195C12.405 16.635 11.92 17.045 11.45 17.425H15.995V19H8.765Z" fill="white"/>
</svg>
