<svg width="25" height="28" viewBox="0 0 25 28" fill="none" xmlns="http://www.w3.org/2000/svg">
<circle cx="12.5" cy="14.5" r="12.5" fill="#142683"/>
<path d="M12.455 19.18C11.765 19.18 11.14 19.06 10.58 18.82C10.02 18.57 9.57 18.19 9.23 17.68C8.89 17.17 8.71 16.53 8.69 15.76H10.58C10.59 16.27 10.755 16.7 11.075 17.05C11.405 17.39 11.865 17.56 12.455 17.56C13.015 17.56 13.445 17.405 13.745 17.095C14.045 16.785 14.195 16.395 14.195 15.925C14.195 15.375 13.995 14.96 13.595 14.68C13.205 14.39 12.7 14.245 12.08 14.245H11.3V12.67H12.095C12.605 12.67 13.03 12.55 13.37 12.31C13.71 12.07 13.88 11.715 13.88 11.245C13.88 10.855 13.75 10.545 13.49 10.315C13.24 10.075 12.89 9.955 12.44 9.955C11.95 9.955 11.565 10.1 11.285 10.39C11.015 10.68 10.865 11.035 10.835 11.455H8.96C9 10.485 9.335 9.72 9.965 9.16C10.605 8.6 11.43 8.32 12.44 8.32C13.16 8.32 13.765 8.45 14.255 8.71C14.755 8.96 15.13 9.295 15.38 9.715C15.64 10.135 15.77 10.6 15.77 11.11C15.77 11.7 15.605 12.2 15.275 12.61C14.955 13.01 14.555 13.28 14.075 13.42C14.665 13.54 15.145 13.83 15.515 14.29C15.885 14.74 16.07 15.31 16.07 16C16.07 16.58 15.93 17.11 15.65 17.59C15.37 18.07 14.96 18.455 14.42 18.745C13.89 19.035 13.235 19.18 12.455 19.18Z" fill="white"/>
</svg>
